# xmcd
#
# Track frame offsets:
#	150
#	12417
#	26300
#	40322
#	49982
#	61627
#	72082
#	82840
#	97212
#	110947
#	121537
#	132365
#	143900
#	154487
#	165075
#	177342
#	189122
#	201482
#	213465
#	228442
#	238050
#	251192
#	265240
#	277932
#
# Disc length: 3855 seconds
#
# Revision: 1
# Processed by: cddbd v1.5.2PL0 Copyright (c) Steve Scherf et al.
# Submitted via: audiograbber 1.83.01
#
DISCID=540f0d18
DTITLE=Johnny Ray - Yes to night Josephine
DYEAR=1900
DGENRE=
TTITLE0=After my laugther came tears
TTITLE1=Lonely wine
TTITLE2=It´s true, it´s true
TTITLE3=Lookout chattanoga
TTITLE4=I cant stop crying for you
TTITLE5=Jealous heart
TTITLE6=I´ve learning
TTITLE7=Can´t i
TTITLE8=Sweethearts or strangers
TTITLE9=Fontainebleu
TTITLE10=Break my heart
TTITLE11=One life
TTITLE12=Sleepy time gal
TTITLE13=Happy
TTITLE14=A sometime love
TTITLE15=Step aside
TTITLE16=I still love you
TTITLE17=Every night lulu
TTITLE18=Higher and higher
TTITLE19=Troublemaker
TTITLE20=Since
TTITLE21=Wise to the ways of the world
TTITLE22=Long and lonely
TTITLE23=Broken hearted me evil hearted you
EXTD=CD5
EXTT0=
EXTT1=
EXTT2=
EXTT3=
EXTT4=
EXTT5=
EXTT6=
EXTT7=
EXTT8=
EXTT9=
EXTT10=
EXTT11=
EXTT12=
EXTT13=
EXTT14=
EXTT15=
EXTT16=
EXTT17=
EXTT18=
EXTT19=
EXTT20=
EXTT21=
EXTT22=
EXTT23=
PLAYORDER=
